<mxfile host="Electron" modified="2024-01-06T22:47:51.813Z" agent="Mozilla/5.0 (Macintosh; Intel Mac OS X 10_15_7) AppleWebKit/537.36 (KHTML, like Gecko) draw.io/22.1.16 Chrome/120.0.6099.109 Electron/28.1.0 Safari/537.36" etag="4muwH1KaBs3xY3iOcKmu" version="22.1.16" type="device">
  <diagram name="Page-1" id="hpn-_-INqMsdnqjHrVBb">
    <mxGraphModel dx="446" dy="351" grid="1" gridSize="10" guides="1" tooltips="1" connect="1" arrows="1" fold="1" page="1" pageScale="1" pageWidth="827" pageHeight="1169" math="0" shadow="0">
      <root>
        <mxCell id="0" />
        <mxCell id="1" parent="0" />
        <mxCell id="ZGYSk4H8Na1sGl9_nXZp-1" value="" style="whiteSpace=wrap;html=1;aspect=fixed;" vertex="1" parent="1">
          <mxGeometry x="290" y="330" width="160" height="160" as="geometry" />
        </mxCell>
        <mxCell id="ZGYSk4H8Na1sGl9_nXZp-2" value="" style="ellipse;whiteSpace=wrap;html=1;aspect=fixed;" vertex="1" parent="1">
          <mxGeometry x="295" y="335" width="150" height="150" as="geometry" />
        </mxCell>
        <mxCell id="ZGYSk4H8Na1sGl9_nXZp-3" value="" style="ellipse;whiteSpace=wrap;html=1;aspect=fixed;" vertex="1" parent="1">
          <mxGeometry x="325" y="365" width="90" height="90" as="geometry" />
        </mxCell>
        <mxCell id="ZGYSk4H8Na1sGl9_nXZp-4" value="" style="ellipse;whiteSpace=wrap;html=1;aspect=fixed;" vertex="1" parent="1">
          <mxGeometry x="360" y="400" width="20" height="20" as="geometry" />
        </mxCell>
        <mxCell id="ZGYSk4H8Na1sGl9_nXZp-5" value="+" style="endArrow=none;html=1;rounded=0;exitX=0.5;exitY=1;exitDx=0;exitDy=0;entryX=0.5;entryY=0;entryDx=0;entryDy=0;" edge="1" parent="1">
          <mxGeometry width="50" height="50" relative="1" as="geometry">
            <mxPoint x="370" y="485" as="sourcePoint" />
            <mxPoint x="370" y="335" as="targetPoint" />
          </mxGeometry>
        </mxCell>
        <mxCell id="ZGYSk4H8Na1sGl9_nXZp-6" value="" style="endArrow=none;html=1;rounded=0;entryX=1;entryY=0.5;entryDx=0;entryDy=0;" edge="1" parent="1">
          <mxGeometry width="50" height="50" relative="1" as="geometry">
            <mxPoint x="295" y="411" as="sourcePoint" />
            <mxPoint x="445.0000000000002" y="411" as="targetPoint" />
          </mxGeometry>
        </mxCell>
      </root>
    </mxGraphModel>
  </diagram>
</mxfile>
